{
  "accessors": [
    {
      "bufferView": 2,
      "componentType": 5126,
      "count": 3210,
      "max": [
        7.965771198272705,
        6.354647636413574,
        7.944457054138184
      ],
      "min": [
        -7.965775966644287,
        0.07691502571105957,
        -7.034407615661621
      ],
      "type": "VEC3"
    },
    {
      "bufferView": 2,
      "byteOffset": 38520,
      "componentType": 5126,
      "count": 3210,
      "max": [
        1.0,
        0.9999964237213135,
        0.9999730587005615
      ],
      "min": [
        -1.0,
        -1.0,
        -0.9999971389770508
      ],
      "type": "VEC3"
    },
    {
      "bufferView": 3,
      "componentType": 5126,
      "count": 3210,
      "max": [
        0.9999998807907104,
        0.9999967813491821,
        1.0,
        1.0
      ],
      "min": [
        -0.9999998807907104,
        -0.9999921321868896,
        -0.9999971985816956,
        1.0
      ],
      "type": "VEC4"
    },
    {
      "bufferView": 1,
      "componentType": 5126,
      "count": 3210,
      "max": [
        0.9988648891448975,
        0.9969580173492432
      ],
      "min": [
        0.0021535158157348633,
        0.002507030963897705
      ],
      "type": "VEC2"
    },
    {
      "bufferView": 1,
      "byteOffset": 25680,
      "componentType": 5126,
      "count": 3210,
      "max": [
        0.9988648891448975,
        0.9969580173492432
      ],
      "min": [
        0.0021535158157348633,
        0.002507030963897705
      ],
      "type": "VEC2"
    },
    {
      "bufferView": 0,
      "componentType": 5125,
      "count": 10560,
      "type": "SCALAR"
    }
  ],
  "asset": {
    "extras": {
      "author": "synthetic worlds (https://sketchfab.com/syntheticworlds)",
      "license": "CC-BY-4.0 (http://creativecommons.org/licenses/by/4.0/)",
      "source": "https://sketchfab.com/3d-models/nintendo-64-controller-0cec163531b5428a8b77114314364712",
      "title": "Nintendo 64 Controller"
    },
    "generator": "Sketchfab-16.68.0",
    "version": "2.0"
  },
  "bufferViews": [
    {
      "buffer": 0,
      "byteLength": 42240,
      "name": "floatBufferViews",
      "target": 34963
    },
    {
      "buffer": 0,
      "byteLength": 51360,
      "byteOffset": 42240,
      "byteStride": 8,
      "name": "floatBufferViews",
      "target": 34962
    },
    {
      "buffer": 0,
      "byteLength": 77040,
      "byteOffset": 93600,
      "byteStride": 12,
      "name": "floatBufferViews",
      "target": 34962
    },
    {
      "buffer": 0,
      "byteLength": 51360,
      "byteOffset": 170640,
      "byteStride": 16,
      "name": "floatBufferViews",
      "target": 34962
    },
    {
      "buffer": 0,
      "byteLength": 379968,
      "byteOffset": 222000,
      "name": "blinn1_baseColor.png"
    },
    {
      "buffer": 0,
      "byteLength": 377423,
      "byteOffset": 601968,
      "name": "blinn1_metallicRoughness.png"
    },
    {
      "buffer": 0,
      "byteLength": 418786,
      "byteOffset": 979391,
      "name": "blinn1_normal.png"
    }
  ],
  "buffers": [
    {
      "byteLength": 1398177,
      "uri": "nintendo_64_controller.bin"
    }
  ],
  "images": [
    {
      "mimeType": "image/png",
      "uri": "base_color.png",
      "name": "base_color"
    },
    {
      "mimeType": "image/png",
      "uri": "metallic_roughness.png",
      "name": "metallic_roughness"
    },
    {
      "mimeType": "image/png",
      "uri": "normal.png",
      "name": "normal"
    }
  ],
  "materials": [
    {
      "doubleSided": true,
      "name": "blinn1",
      "normalTexture": {
        "index": 2
      },
      "pbrMetallicRoughness": {
        "baseColorTexture": {
          "index": 0
        },
        "metallicRoughnessTexture": {
          "index": 1
        }
      }
    }
  ],
  "meshes": [
    {
      "name": "polySurface2_blinn1_0",
      "primitives": [
        {
          "attributes": {
            "NORMAL": 1,
            "POSITION": 0,
            "TANGENT": 2,
            "TEXCOORD_0": 3,
            "TEXCOORD_1": 4
          },
          "indices": 5,
          "material": 0,
          "mode": 4
        }
      ]
    }
  ],
  "nodes": [
    {
      "children": [
        1
      ],
      "matrix": [
        1.0,
        0.0,
        0.0,
        0.0,
        0.0,
        2.220446049250313e-16,
        -1.0,
        0.0,
        0.0,
        1.0,
        2.220446049250313e-16,
        0.0,
        0.0,
        0.0,
        0.0,
        1.0
      ],
      "name": "Sketchfab_model"
    },
    {
      "children": [
        2
      ],
      "matrix": [
        1.0,
        0.0,
        0.0,
        0.0,
        0.0,
        0.0,
        1.0,
        0.0,
        0.0,
        -1.0,
        0.0,
        0.0,
        0.0,
        0.0,
        0.0,
        1.0
      ],
      "name": "N64_Controller_02.FBX"
    },
    {
      "children": [
        3
      ],
      "name": "RootNode"
    },
    {
      "children": [
        4
      ],
      "name": "polySurface2"
    },
    {
      "mesh": 0,
      "name": "polySurface2_blinn1_0"
    }
  ],
  "samplers": [
    {
      "magFilter": 9729,
      "minFilter": 9987,
      "wrapS": 10497,
      "wrapT": 10497
    }
  ],
  "scene": 0,
  "scenes": [
    {
      "name": "Sketchfab_Scene",
      "nodes": [
        0
      ]
    }
  ],
  "textures": [
    {
      "sampler": 0,
      "source": 0
    },
    {
      "sampler": 0,
      "source": 1
    },
    {
      "sampler": 0,
      "source": 2
    }
  ]
}
